<?xml version="1.0" encoding="UTF-8" standalone="no"?>
<!DOCTYPE svg PUBLIC "-//W3C//DTD SVG 1.1//EN" "http://www.w3.org/Graphics/SVG/1.1/DTD/svg11.dtd">
<svg width="100%" height="100%" viewBox="0 0 1080 1080" version="1.1" xmlns="http://www.w3.org/2000/svg" xmlns:xlink="http://www.w3.org/1999/xlink" xml:space="preserve" xmlns:serif="http://www.serif.com/" style="fill-rule:evenodd;clip-rule:evenodd;stroke-linejoin:round;stroke-miterlimit:2;">
    <rect id="adaptive--final-export-graphic-" serif:id="adaptive (final export graphic)" x="0" y="0" width="1080" height="1080" style="fill:none;"/>
    <clipPath id="_clip1">
        <rect x="0" y="0" width="1080" height="1080"/>
    </clipPath>
    <g clip-path="url(#_clip1)">
        <rect id="bg" x="0" y="0" width="1080" height="1080" style="fill:rgb(9,73,123);"/>
        <g id="fg">
            <rect id="ground" x="-19" y="948" width="1145" height="160" style="fill:rgb(4,30,50);"/>
            <g id="grass">
                <path d="M723.205,993.36c0,0 -0.043,-31.317 17.097,-61.314c16.508,-28.888 33.605,-37.142 33.605,-37.142c0,0 9.433,31.247 5.306,61.314c-4.127,30.068 -7.664,37.732 -7.664,37.732l-48.344,-0.59Z" style="fill:rgb(4,30,50);"/>
                <path d="M728.695,963.938c0,-0 20.46,-27.649 47.555,-42.026c27.096,-14.377 41.473,-16.036 41.473,-16.036c-0,-0 19.354,34.837 -2.212,77.415c-21.566,42.579 -27.095,39.261 -27.095,39.261l-59.721,-58.614Z" style="fill:rgb(4,30,50);"/>
                <path d="M952.508,993.798c-0,-0 -0.811,-29.292 4.976,-53.085c4.977,-20.46 16.59,-30.413 16.59,-30.413c-0,-0 23.224,7.188 25.989,45.896c2.765,38.708 -1.106,57.509 -1.106,57.509l-46.449,-19.907Z" style="fill:rgb(4,30,50);"/>
                <path d="M149.774,1015.85c-0,0 3.421,-12.317 -21.213,-52.004c-24.634,-39.688 -72.533,-71.849 -72.533,-71.849c0,0 -0.684,75.27 17.791,105.378c18.476,30.108 32.845,41.741 32.845,41.741l43.11,-23.266Z" style="fill:rgb(4,30,50);"/>
                <path d="M1052.07,1039.27c0,0 -18.3,-27.804 -23.256,-61.243c-4.823,-32.536 13.28,-80.661 13.28,-80.661c-0,-0 40.084,31.512 54.826,63.614c14.741,32.102 0.096,70.095 0.096,70.095l-44.946,8.195Z" style="fill:rgb(4,30,50);"/>
                <path d="M23.125,920.231c0,-0 25.449,7.217 34.185,30.766c8.736,23.549 9.496,37.223 9.496,37.223l-20.511,4.558c-0,0 -17.093,-14.813 -21.651,-39.122c-4.558,-24.309 -1.519,-33.425 -1.519,-33.425Z" style="fill:rgb(4,30,50);"/>
            </g>
            <g id="lines-baked" serif:id="lines baked">
                <path id="baked" d="M693.589,382.904c-2.26,-3.628 -1.383,-8.381 2.023,-10.964c9.228,-7.087 26.379,-20.091 35.866,-27.284c1.817,-1.378 4.118,-1.952 6.368,-1.589c2.251,0.362 4.255,1.63 5.547,3.508c6.311,9.475 11.329,19.958 14.716,31.244c0.644,2.223 0.33,4.613 -0.865,6.595c-1.195,1.982 -3.163,3.375 -5.429,3.844c-11.844,2.489 -33.084,6.88 -44.287,9.196c-4.053,0.837 -8.107,-1.423 -9.526,-5.31c-1.15,-3.263 -2.653,-6.344 -4.413,-9.24Zm-33.164,-25.111c-4.044,-1.066 -6.657,-4.983 -6.087,-9.126c1.706,-12.927 5.28,-38.918 7.132,-52.382c0.313,-2.279 1.553,-4.327 3.427,-5.661c1.874,-1.334 4.215,-1.835 6.471,-1.384c12.537,2.672 24.483,7.212 35.462,13.384c1.982,1.143 3.405,3.053 3.933,5.278c0.529,2.226 0.116,4.572 -1.141,6.483c-7.433,11.37 -21.838,33.283 -29.004,44.183c-2.323,3.533 -6.921,4.77 -10.702,2.878c-3.01,-1.543 -6.196,-2.75 -9.491,-3.653Zm-41.788,4.893c-3.604,2.024 -8.149,1.079 -10.646,-2.215c-6.983,-9.097 -20.077,-26.367 -27.377,-35.995c-1.4,-1.846 -1.969,-4.192 -1.571,-6.475c0.399,-2.283 1.729,-4.297 3.672,-5.56c9.734,-6.121 20.468,-10.912 31.991,-14.028c2.203,-0.573 4.543,-0.218 6.476,0.984c1.932,1.201 3.287,3.143 3.748,5.371c2.452,11.673 6.814,32.775 9.168,44.159c0.869,4.207 -1.599,8.386 -5.702,9.657c-3.434,1.022 -6.69,2.424 -9.759,4.102Z" style="fill:rgb(57,172,255);"/>
            </g>
            <g id="mammoth">
                <path id="tuft" d="M430.418,436.068c37.839,-14.946 80.921,-16.122 120.74,0.423c50.319,20.909 59.857,72.202 66.27,83.376c6.905,12.032 15.417,19.615 26.813,14.891c13.338,-5.53 9.633,-22.753 1.147,-37.657c-11.606,-20.387 -37.878,-41.777 -31.678,-71.382c2.973,-14.198 6.852,-24.255 9.821,-30.543c0.921,-1.641 2.65,-2.663 4.532,-2.679c1.882,-0.016 3.628,0.977 4.577,2.602c2.857,4.786 6.3,10.679 8.469,14.393c1.251,2.141 3.779,3.183 6.175,2.544c4.169,-1.112 10.864,-2.897 16.753,-4.468c2.007,-0.535 4.141,0.151 5.461,1.755c1.319,1.604 1.58,3.831 0.668,5.696c-2.822,5.735 -5.578,12.67 -5.564,17.829c0.09,31.866 24.632,26.808 49.844,56.405c25.211,29.596 55.902,85.387 10.559,140.128c-33.425,40.353 -76.297,50.651 -88.355,69.834c-12.058,19.183 -25.211,54.26 -7.125,94.27c18.087,40.01 43.907,102.508 46.039,155.107c0.811,20.006 -2.269,34.211 -4.941,42.514c-1.019,3.044 -3.11,5.775 -5.768,7.518c0.086,-0.592 -33.921,-6.589 -36.478,1.984l-6.645,0.001c0.078,-0.567 -33.298,-8.695 -35.879,0.003l-7.158,0c0.014,-0.253 -33.056,-8.636 -35.668,0.001l-6.018,-0c-3.009,-13.613 -12.009,-36.613 -18.69,-47.135c-7.397,4.274 -15.718,7.707 -25.024,9.762c-7.414,1.638 -14.826,2.392 -22.075,2.487c-8.559,0.112 -28.087,29.208 -29.521,34.776l-3.913,-0.013c0.375,-1.082 -33.407,-8.717 -35.963,-0.112l-6.682,-0.02c0.058,-0.495 -33.214,-8.787 -35.805,-0.102l-7.248,-0.02c0.004,-0.135 -32.902,-8.704 -35.533,-0.119l-29.707,-0.101c-3.313,-0.01 -6.528,-1.124 -9.138,-3.165c-7.626,-6.19 -23.844,-21.526 -34.335,-47.407c-16.208,-0.031 -34.948,-2.593 -49.261,-11.866c-40.926,-26.515 -48.658,-63.134 -48.658,-63.134l4.258,-13.276l18.709,6.103c0,-0 8.183,25.169 27.756,36.232c14.941,8.445 28.247,2.586 36.061,-2.921c-2.379,-30.193 3.007,-63.18 19.16,-100.175c14.796,-33.889 36.205,-57.41 57.017,-75.124c12.583,-0.283 20.774,-12.282 19.782,-15.536c-3.019,-23.383 -7.614,-65.338 -6.221,-90.288c2.303,-41.259 8.002,-88.665 36.005,-127.785c-5.256,-9.972 -10.595,-21.252 -12.026,-28.3c-2.57,-12.668 2.454,-20.935 9.999,-22.16c4.582,-0.743 8.844,1.957 12.729,7.633c0.039,-7.473 0.575,-15.963 2.355,-22.548c4.075,-15.08 11.971,-23.038 17.933,-22.824c6.405,0.23 11.352,9.008 12.589,20.639c3.195,-5.392 7.938,-11.212 13.928,-12.429c11.69,-2.375 16.02,7.652 16.006,15.641c-0.004,2.511 -0.426,5.544 -1.078,8.742Z" style="fill:rgb(155,174,200);"/>
                <path d="M518.723,950c1.284,-12.431 2.194,-25.202 2.194,-36.421c-0,-34.403 -20.085,-59.12 -20.085,-59.12c-4.369,-5.339 -3.581,-13.221 1.759,-17.59c5.339,-4.368 13.221,-3.58 17.59,1.759c-0,0 25.736,31.288 25.736,74.951c-0,28.991 -5.751,67.875 -8.908,87.034l-10.009,0c-6.796,0 -14.205,-6.167 -13.223,-12.892l0.003,-0.02c1.618,-10.411 3.511,-23.84 4.941,-37.686l0.002,-0.015l-0,0Zm-77.024,50.503c3.229,-12.54 14.278,-65.536 -14.142,-115.555c-5.612,-9.877 -11.796,-16.23 -18.404,-19.786c-9.918,-5.336 -20.41,-4.009 -29.414,-0.95c-15.552,5.285 -27.292,16.024 -27.292,16.024l-0,-0c-5.086,4.662 -13,4.318 -17.661,-0.768c-4.662,-5.086 -4.318,-12.999 0.767,-17.661c0,0 15.536,-14.264 36.143,-21.266c15.104,-5.132 32.664,-6.346 49.302,2.606c9.988,5.374 19.814,14.523 28.295,29.451c18.258,32.132 22.535,65.32 22.057,91.109l-1.225,18.938l-0.001,0.004c-0.627,5.064 -1.895,8.906 -5.123,12.12c-3.228,3.216 -7.604,5.793 -12.16,5.775c-3.153,-0.012 -6.931,-0.026 -11.142,-0.041Zm-113.5,-290.756c0.992,3.254 5.083,4.046 8.608,4.288c2.545,0.174 5.146,-0.154 7.278,-1.181c0.864,-0.417 1.747,-0.868 2.044,-1.77c0.075,-0.227 0.156,-0.451 0.243,-0.671c-0.496,-2.838 -0.67,-4.572 -0.67,-4.572c-0.577,-6.875 4.537,-12.925 11.411,-13.501c6.875,-0.577 12.925,4.536 13.501,11.411c0,0 1.069,18.603 11.108,27.95c6.156,5.731 12.432,3.382 16.451,0.853c0.332,-0.208 0.651,-0.419 0.959,-0.63c-0.689,-2.052 -1.303,-4.224 -1.834,-6.522c-1.553,-6.722 2.643,-13.44 9.365,-14.993c6.722,-1.553 13.44,2.643 14.993,9.364c1.976,8.549 5.443,14.094 10.137,16.6c5.483,2.927 12.009,0.95 15.83,-3.51c6.166,-7.196 5.683,-19.415 4.319,-31.261c-2.509,-21.786 -10.756,-43.061 -10.756,-43.061c-2.491,-6.434 0.709,-13.679 7.143,-16.171c6.433,-2.491 13.679,0.71 16.17,7.143c-0,0 12.84,33.401 13.124,62.151c0.146,14.769 -3.182,28.322 -11.015,37.465c-11.195,13.067 -30.524,17.874 -46.588,9.298c-2.674,-1.428 -5.295,-3.243 -7.773,-5.495c-11.082,7.178 -29.501,13.881 -47.56,-2.933c-4.36,-4.059 -7.752,-9.172 -10.381,-14.469c-5.751,2.674 -12.446,3.909 -19.206,3.446c-10.708,-0.733 -20.763,-5.54 -26.683,-13.693c6.738,-5.735 13.413,-10.862 19.782,-15.536l-0,-0Z" style="fill:rgb(92,109,130);"/>
                <path d="M543.027,1000.61c2.612,-8.637 6.976,-20.4 19.34,-20.4c12.907,0 16.349,11.359 16.349,19.619c0,0.267 -0.007,0.527 -0.021,0.78l-11.539,0.001l-24.129,-0Zm42.826,-0.001c2.581,-8.698 6.785,-21.431 19.649,-21.431c12.907,-0 16.349,11.358 16.349,19.619c-0,0.639 -0.041,1.242 -0.119,1.809l-2.709,0.001c-5.682,0 -11.363,0.001 -17.045,0.001l-16.125,0.001Zm42.524,-0.004c2.557,-8.573 6.335,-23.492 20.26,-23.492c12.907,-0 16.348,11.358 16.348,19.619c0,0.668 -0.044,1.297 -0.13,1.889c-1.887,1.237 -4.061,1.977 -6.34,1.977c-6.894,0.003 -17.603,0.006 -30.138,0.007Zm-226.554,-0.23c2.556,-8.605 6.389,-23.262 20.191,-23.262c12.907,-0 16.349,11.358 16.349,19.619c-0,1.428 -0.202,2.673 -0.577,3.755c-10.651,-0.036 -23.481,-0.075 -35.963,-0.112Zm-42.487,-0.122c2.591,-8.685 6.854,-21.075 19.543,-21.075c12.907,-0 16.349,11.358 16.349,19.619c0,0.545 -0.029,1.063 -0.087,1.558c-14.403,-0.042 -27.698,-0.08 -35.805,-0.102Zm-42.781,-0.139c2.631,-8.585 7.061,-19.904 19.19,-19.904c12.907,0 16.348,11.359 16.348,19.619c0,0.136 -0.001,0.269 -0.005,0.404l-0.871,-0.002l-34.662,-0.117Z" style="fill:white;"/>
                <path id="tail-end" serif:id="tail end" d="M134.767,850.158c-2.496,-3.222 -4.091,-7.317 -3.177,-12.316c1.924,-10.53 15.139,-13.879 20.915,-7.554c2.7,2.956 4.211,6.707 5.024,10.322c2.475,-4.24 6.552,-8.315 13.114,-8.545c11.134,-0.39 15.434,12.958 10.082,22.533c-4.482,8.017 -12.302,12.673 -12.302,12.673l-22.967,7.173c-13.962,2.686 -30.918,-1.745 -27.243,-17.62c1.8,-7.774 9.231,-8.545 16.554,-6.666Z" style="fill:rgb(92,110,131);"/>
                <path id="tusk" d="M581.912,650.5c3.616,-2.049 7.952,-2.401 11.851,-0.963c9.325,3.324 31.046,8.93 53.461,-0.281c29.726,-12.217 51.308,-50.901 51.308,-50.901c0,-0 10.18,24.432 4.072,46.421c-6.108,21.99 -32.617,62.092 -71.302,66.978c-38.685,4.887 -58.459,-7.818 -63.346,-27.771c-3.966,-16.195 4.048,-27.904 13.956,-33.483Z" style="fill:white;"/>
                <path d="M548.47,567.994c-3.609,-1.916 -7.43,-6.399 -9.947,-11.537c-3.128,-6.386 -3.976,-14.482 4.065,-19.779c5.55,-3.656 11.794,-1.658 17.118,1.602c6.9,4.227 12.697,11.016 14.82,17.099c2.274,6.514 9.407,9.957 15.921,7.684c6.514,-2.274 9.956,-9.407 7.683,-15.921c-4.456,-12.77 -17.651,-27.777 -33.011,-34.078c-11.817,-4.848 -24.667,-4.916 -36.284,2.737c-21.189,13.959 -21.006,34.826 -12.763,51.653c5.063,10.338 13.415,18.767 20.677,22.622c6.094,3.234 13.667,0.913 16.902,-5.181c3.235,-6.093 0.913,-13.667 -5.181,-16.901Z"/>
            </g>
        </g>
    </g>
</svg>
