<?xml version="1.0" encoding="UTF-8" standalone="no"?>
<!DOCTYPE svg PUBLIC "-//W3C//DTD SVG 1.1//EN" "http://www.w3.org/Graphics/SVG/1.1/DTD/svg11.dtd">
<svg width="100%" height="100%" viewBox="0 0 480 480" version="1.1" xmlns="http://www.w3.org/2000/svg" xmlns:xlink="http://www.w3.org/1999/xlink" xml:space="preserve" xmlns:serif="http://www.serif.com/" style="fill-rule:evenodd;clip-rule:evenodd;stroke-linejoin:round;stroke-miterlimit:2;">
    <rect id="notification--final-export-graphic-" serif:id="notification (final export graphic)" x="0" y="0" width="480" height="480" style="fill:none;"/>
    <path d="M199.253,432.82c-10.926,-44.396 -37.219,-99.418 -23.815,-168.508c3.594,-18.527 15.957,-41.5 23.9,-54.908c1.432,-2.454 4.035,-3.988 6.876,-4.053c2.84,-0.064 5.51,1.35 7.052,3.737c6.056,9.285 14.519,22.382 19.491,30.076c2.425,3.752 7.044,5.441 11.317,4.137c8.275,-2.524 22.158,-6.76 33.522,-10.227c3.126,-0.953 6.52,0.035 8.645,2.517c2.125,2.483 2.579,5.988 1.155,8.93c-6.775,13.992 -13.686,30.783 -16.936,45.692c-10.527,48.282 41.549,67.216 63.853,119.495c0.428,1.002 0.838,2.008 1.229,3.012c-20.258,11.028 -42.779,18.709 -66.931,22.201c-23.748,3.433 -47.13,2.534 -69.358,-2.101Zm119.438,-241.342c-3.499,-6.066 -1.977,-13.784 3.563,-18.067c14.037,-10.857 39.048,-30.193 53.663,-41.492c3.093,-2.392 7.046,-3.381 10.901,-2.728c3.855,0.653 7.262,2.888 9.395,6.165c9.483,14.566 17,30.529 22.155,47.516c1.138,3.739 0.66,7.783 -1.319,11.153c-1.979,3.37 -5.278,5.758 -9.098,6.586c-18.064,3.929 -48.98,10.625 -66.324,14.381c-6.836,1.48 -13.715,-2.312 -16.114,-8.882c-1.843,-5.106 -4.133,-9.998 -6.822,-14.632Zm-98.923,-56.475c1.361,6.861 -2.551,13.674 -9.163,15.957c-5.139,1.753 -10.071,3.958 -14.748,6.564c-6.126,3.392 -13.817,1.736 -18.003,-3.878c-10.61,-14.225 -29.508,-39.57 -40.55,-54.38c-2.337,-3.134 -3.257,-7.103 -2.537,-10.947c0.72,-3.843 3.014,-7.21 6.327,-9.286c14.72,-9.221 30.811,-16.46 47.902,-21.319c3.757,-1.072 7.792,-0.523 11.127,1.515c3.334,2.037 5.664,5.377 6.424,9.21c3.614,18.129 9.768,49.157 13.221,66.564Zm44.435,14.351c-6.736,-1.881 -11.05,-8.447 -10.102,-15.377c2.778,-20.333 8.152,-59.612 11.05,-80.788c0.527,-3.859 2.639,-7.324 5.827,-9.561c3.188,-2.238 7.164,-3.047 10.972,-2.232c19.508,4.189 37.968,11.209 54.921,20.621c3.4,1.887 5.861,5.105 6.792,8.88c0.93,3.776 0.247,7.769 -1.887,11.02c-11.711,17.871 -33.459,51.003 -44.72,68.159c-3.843,5.855 -11.422,7.969 -17.741,4.949c-4.817,-2.32 -9.87,-4.225 -15.112,-5.671Z"/>
</svg>
